%TF.GenerationSoftware,KiCad,Pcbnew,9.0.7-9.0.7~ubuntu24.04.1*%
%TF.CreationDate,2026-01-21T00:26:08+01:00*%
%TF.ProjectId,SILVER,53494c56-4552-42e6-9b69-6361645f7063,rev?*%
%TF.SameCoordinates,Original*%
%TF.FileFunction,Soldermask,Bot*%
%TF.FilePolarity,Negative*%
%FSLAX46Y46*%
G04 Gerber Fmt 4.6, Leading zero omitted, Abs format (unit mm)*
G04 Created by KiCad (PCBNEW 9.0.7-9.0.7~ubuntu24.04.1) date 2026-01-21 00:26:08*
%MOMM*%
%LPD*%
G01*
G04 APERTURE LIST*
G04 Aperture macros list*
%AMRoundRect*
0 Rectangle with rounded corners*
0 $1 Rounding radius*
0 $2 $3 $4 $5 $6 $7 $8 $9 X,Y pos of 4 corners*
0 Add a 4 corners polygon primitive as box body*
4,1,4,$2,$3,$4,$5,$6,$7,$8,$9,$2,$3,0*
0 Add four circle primitives for the rounded corners*
1,1,$1+$1,$2,$3*
1,1,$1+$1,$4,$5*
1,1,$1+$1,$6,$7*
1,1,$1+$1,$8,$9*
0 Add four rect primitives between the rounded corners*
20,1,$1+$1,$2,$3,$4,$5,0*
20,1,$1+$1,$4,$5,$6,$7,0*
20,1,$1+$1,$6,$7,$8,$9,0*
20,1,$1+$1,$8,$9,$2,$3,0*%
G04 Aperture macros list end*
%ADD10R,1.700000X1.700000*%
%ADD11C,1.700000*%
%ADD12RoundRect,1.500000X1.500000X-1.500000X1.500000X1.500000X-1.500000X1.500000X-1.500000X-1.500000X0*%
%ADD13C,6.000000*%
%ADD14RoundRect,0.100000X-2.500000X-0.750000X2.500000X-0.750000X2.500000X0.750000X-2.500000X0.750000X0*%
%ADD15RoundRect,0.101600X1.000000X0.850000X-1.000000X0.850000X-1.000000X-0.850000X1.000000X-0.850000X0*%
%ADD16C,1.400000*%
%ADD17RoundRect,0.250001X1.149999X1.149999X-1.149999X1.149999X-1.149999X-1.149999X1.149999X-1.149999X0*%
%ADD18C,2.800000*%
%ADD19RoundRect,0.250001X-1.149999X-1.149999X1.149999X-1.149999X1.149999X1.149999X-1.149999X1.149999X0*%
%ADD20RoundRect,0.250001X-1.149999X1.149999X-1.149999X-1.149999X1.149999X-1.149999X1.149999X1.149999X0*%
G04 APERTURE END LIST*
D10*
%TO.C,J2*%
X172025000Y-76000000D03*
D11*
X172025000Y-78540000D03*
X172025000Y-81080000D03*
X172025000Y-83620000D03*
%TD*%
D10*
%TO.C,J18*%
X153725000Y-122000000D03*
D11*
X156265000Y-122000000D03*
%TD*%
D10*
%TO.C,J5*%
X250580000Y-137500000D03*
D11*
X248040000Y-137500000D03*
X245500000Y-137500000D03*
X242960000Y-137500000D03*
X240420000Y-137500000D03*
X237880000Y-137500000D03*
%TD*%
D12*
%TO.C,J6*%
X232000000Y-124600000D03*
D13*
X232000000Y-117400000D03*
%TD*%
D10*
%TO.C,J12*%
X242460000Y-121500000D03*
D11*
X245000000Y-121500000D03*
%TD*%
D14*
%TO.C,SW1*%
X231500000Y-99000000D03*
X231500000Y-104000000D03*
%TD*%
D15*
%TO.C,J7*%
X228000000Y-143080000D03*
X228000000Y-140540000D03*
X228000000Y-138000000D03*
X228000000Y-135460000D03*
X228000000Y-132920000D03*
X228000000Y-130380000D03*
X223969000Y-132056400D03*
X223969000Y-129516400D03*
%TD*%
D16*
%TO.C,R1*%
X240500000Y-107280000D03*
X240500000Y-109820000D03*
%TD*%
D10*
%TO.C,J3*%
X173500000Y-109780000D03*
D11*
X173500000Y-107240000D03*
X173500000Y-104700000D03*
X173500000Y-102160000D03*
X173500000Y-99620000D03*
X173500000Y-97080000D03*
X173500000Y-94540000D03*
X173500000Y-92000000D03*
%TD*%
D10*
%TO.C,J11*%
X228025000Y-76000000D03*
D11*
X228025000Y-78540000D03*
X228025000Y-81080000D03*
X228025000Y-83620000D03*
%TD*%
D17*
%TO.C,J16*%
X162500000Y-130500000D03*
D18*
X157500000Y-130500000D03*
%TD*%
D10*
%TO.C,J9*%
X183500000Y-85240000D03*
D11*
X180960000Y-85240000D03*
X183500000Y-87780000D03*
X180960000Y-87780000D03*
X183500000Y-90320000D03*
X180960000Y-90320000D03*
X183500000Y-92860000D03*
X180960000Y-92860000D03*
X183500000Y-95400000D03*
X180960000Y-95400000D03*
X183500000Y-97940000D03*
X180960000Y-97940000D03*
X183500000Y-100480000D03*
X180960000Y-100480000D03*
X183500000Y-103020000D03*
X180960000Y-103020000D03*
X183500000Y-105560000D03*
X180960000Y-105560000D03*
X183500000Y-108100000D03*
X180960000Y-108100000D03*
X183500000Y-110640000D03*
X180960000Y-110640000D03*
X183500000Y-113180000D03*
X180960000Y-113180000D03*
X183500000Y-115720000D03*
X180960000Y-115720000D03*
X183500000Y-118260000D03*
X180960000Y-118260000D03*
X183500000Y-120800000D03*
X180960000Y-120800000D03*
X183500000Y-123340000D03*
X180960000Y-123340000D03*
X183500000Y-125880000D03*
X180960000Y-125880000D03*
X183500000Y-128420000D03*
X180960000Y-128420000D03*
X183500000Y-130960000D03*
X180960000Y-130960000D03*
X183500000Y-133500000D03*
X180960000Y-133500000D03*
X183500000Y-136040000D03*
X180960000Y-136040000D03*
X183500000Y-138580000D03*
X180960000Y-138580000D03*
%TD*%
D19*
%TO.C,J14*%
X227750000Y-90967500D03*
D18*
X232750000Y-90967500D03*
%TD*%
D10*
%TO.C,D2*%
X243290000Y-113250000D03*
D11*
X240750000Y-113250000D03*
X243290000Y-115790000D03*
X240750000Y-115790000D03*
%TD*%
D10*
%TO.C,J8*%
X231500000Y-141000000D03*
D11*
X231500000Y-138460000D03*
X231500000Y-135920000D03*
X231500000Y-133380000D03*
%TD*%
D10*
%TO.C,J4*%
X162350000Y-138000000D03*
D11*
X159810000Y-138000000D03*
X157270000Y-138000000D03*
X154730000Y-138000000D03*
X152190000Y-138000000D03*
X149650000Y-138000000D03*
%TD*%
D10*
%TO.C,J10*%
X219000000Y-85200000D03*
D11*
X216460000Y-85200000D03*
X219000000Y-87740000D03*
X216460000Y-87740000D03*
X219000000Y-90280000D03*
X216460000Y-90280000D03*
X219000000Y-92820000D03*
X216460000Y-92820000D03*
X219000000Y-95360000D03*
X216460000Y-95360000D03*
X219000000Y-97900000D03*
X216460000Y-97900000D03*
X219000000Y-100440000D03*
X216460000Y-100440000D03*
X219000000Y-102980000D03*
X216460000Y-102980000D03*
X219000000Y-105520000D03*
X216460000Y-105520000D03*
X219000000Y-108060000D03*
X216460000Y-108060000D03*
X219000000Y-110600000D03*
X216460000Y-110600000D03*
X219000000Y-113140000D03*
X216460000Y-113140000D03*
X219000000Y-115680000D03*
X216460000Y-115680000D03*
X219000000Y-118220000D03*
X216460000Y-118220000D03*
X219000000Y-120760000D03*
X216460000Y-120760000D03*
X219000000Y-123300000D03*
X216460000Y-123300000D03*
X219000000Y-125840000D03*
X216460000Y-125840000D03*
X219000000Y-128380000D03*
X216460000Y-128380000D03*
X219000000Y-130920000D03*
X216460000Y-130920000D03*
X219000000Y-133460000D03*
X216460000Y-133460000D03*
X219000000Y-136000000D03*
X216460000Y-136000000D03*
X219000000Y-138540000D03*
X216460000Y-138540000D03*
%TD*%
D17*
%TO.C,J15*%
X247000000Y-130000000D03*
D18*
X242000000Y-130000000D03*
%TD*%
D20*
%TO.C,J17*%
X165532500Y-116250000D03*
D18*
X165532500Y-121250000D03*
%TD*%
M02*
